<svg id="Слой_1" data-name="Слой 1" xmlns="http://www.w3.org/2000/svg" xmlns:xlink="http://www.w3.org/1999/xlink" viewBox="0 0 520 300"><defs><style>.cls-1{fill:#fff;}.cls-2,.cls-4{fill:#b81414;}.cls-2,.cls-5{stroke:#b81414;}.cls-2{stroke-miterlimit:10;}.cls-3{mask:url(#mask);}.cls-5{fill:none;stroke-width:3.71px;}</style><mask id="mask" x="94.43" y="83.14" width="332" height="118" maskUnits="userSpaceOnUse"><g id="path-1-outside-1_40_7" data-name="path-1-outside-1 40 7"><rect class="cls-1" x="94.43" y="83.14" width="332" height="118"/><path d="M176.29,194.14v-1.33c1.79-1.49,3.72-7.14-3-24.22h-56l-.44.89c-6.69,16.64-4.76,22.29-3,23.77v.89H100.23l32.24-78.89c6.68-17.08,5.2-22.28,3.41-24.22V90h33.28v.6c-1.93,1.78-3.41,7.13,3.27,24.22l31.8,79.33Zm-54.22-36.55h46.05l-22.28-54.67h-1.49Zm135.6-67.15c7.58,0,44.28,0,45.17,31.94,0,33.73-35.66,33.73-44.72,33.73h-18V169c0,17.09,4.76,22.29,6.54,24.22v.89H211.62v-.89c1.78-1.48,6.53-7.13,6.53-24.22V115.7c0-17.09-4.75-22.29-6.53-24.22v-1Zm0,54.82s22.88.89,22.88-22.43c0-21.4-22.88-21-22.88-21H239.55v43.38ZM367.86,87.32c36.55,0,54.68,22.43,54.68,54.67,0,33.88-19,53.34-50.52,54.68h-8.47c-31.94-1.78-50.36-20.8-50.36-54.68C313.19,109.75,331.17,87.32,367.86,87.32Zm0,98.5c25.11,0,30.31-12.92,30.31-43.83s-5.65-44.12-30.31-44.12c-24.81,0-30.46,13.82-30.46,44.12C337.4,172.45,343.05,185.82,367.86,185.82Z"/></g></mask></defs><title>AutoPromOpt лого (ВТОП3) без фона</title><path class="cls-2" d="M176.29,194.14v-1.33c1.79-1.49,3.72-7.14-3-24.22h-56l-.44.89c-6.69,16.64-4.76,22.29-3,23.77v.89H100.23l32.24-78.89c6.68-17.08,5.2-22.28,3.41-24.22V90h33.28v.6c-1.93,1.78-3.41,7.13,3.27,24.22l31.8,79.33Zm-54.22-36.55h46.05l-22.28-54.67h-1.49Zm135.6-67.15c7.58,0,44.28,0,45.17,31.94,0,33.73-35.66,33.73-44.72,33.73h-18V169c0,17.09,4.76,22.29,6.54,24.22v.89H211.62v-.89c1.78-1.48,6.53-7.13,6.53-24.22V115.7c0-17.09-4.75-22.29-6.53-24.22v-1Zm0,54.82s22.88.89,22.88-22.43c0-21.4-22.88-21-22.88-21H239.55v43.38ZM367.86,87.32c36.55,0,54.68,22.43,54.68,54.67,0,33.88-19,53.34-50.52,54.68h-8.47c-31.94-1.78-50.36-20.8-50.36-54.68C313.19,109.75,331.17,87.32,367.86,87.32Zm0,98.5c25.11,0,30.31-12.92,30.31-43.83s-5.65-44.12-30.31-44.12c-24.81,0-30.46,13.82-30.46,44.12C337.4,172.45,343.05,185.82,367.86,185.82Z"/><g class="cls-3"><path class="cls-4" d="M176.29,194.14h-3.71v3.72h3.71Zm0-1.33L173.92,190l-1.34,1.12v1.74Zm-3-24.22,3.46-1.35-.92-2.37h-2.54Zm-56,0v-3.72H115l-1,2.06Zm-.44.89-3.33-1.66-.06.14-.06.14Zm-3,23.77h3.72v-1.74l-1.34-1.11Zm0,.89v3.72h3.72v-3.72Zm-13.66,0-3.44-1.4-2.09,5.12h5.53Zm32.24-78.89,3.43,1.41v0l0,0ZM135.88,91h-3.71v1.46l1,1.06Zm0-1V86.28h-3.71V90Zm33.28,0h3.72V86.28h-3.72Zm0,.6,2.52,2.73,1.2-1.11V90.59Zm3.27,24.22L169,116.16h0v0Zm31.8,79.33v3.72h5.49l-2.05-5.1Zm-82.16-36.55-3.44-1.4-2.09,5.12h5.53Zm46.05,0v3.72h5.53l-2.09-5.12Zm-22.28-54.67,3.44-1.4-.94-2.31h-2.5Zm-1.49,0V99.21h-2.5l-.94,2.31ZM180,194.14v-1.33h-7.43v1.33Zm-1.34,1.52c2.18-1.81,3.18-5,3-9.24s-1.5-10.45-4.92-19.18l-6.91,2.7c3.26,8.35,4.29,13.6,4.4,16.74s-.74,3.6-.35,3.27Zm-5.35-30.79h-56v7.43h56ZM114,166.93l-.45.89,6.65,3.32.44-.89Zm-.57,1.17c-3.42,8.51-4.78,14.54-4.93,18.82s.86,7.38,3,9.18l4.75-5.7c.38.32-.46-.06-.35-3.22s1.13-8.19,4.39-16.31Zm-3.24,25.15v.89h7.43v-.89Zm3.71-2.82H100.23v7.43h13.66Zm-10.22,5.12,32.23-78.89L129,113.85,96.79,192.74Zm32.26-78.94c3.4-8.69,4.85-14.68,5.13-18.91s-.63-7.22-2.45-9.19l-5.46,5a1.5,1.5,0,0,1,.31.68,9,9,0,0,1,.19,3c-.21,3.12-1.36,8.28-4.64,16.68ZM139.6,91V90h-7.43v1Zm-3.72,2.68h33.28V86.28H135.88ZM165.45,90v.6h7.43V90Zm1.19-2.13q-3.16,2.92-2.78,9.32c.26,4.26,1.71,10.29,5.11,19l6.92-2.71c-3.28-8.39-4.43-13.58-4.62-16.71s.6-3.59.41-3.42ZM169,116.19l31.79,79.33,6.89-2.76-31.79-79.34Zm35.24,74.24H176.29v7.43h27.94Zm-82.16-29.12h46.05v-7.43H122.07Zm49.49-5.12-22.28-54.67-6.88,2.8L164.68,159Zm-25.72-57h-1.49v7.42h1.49Zm-4.93,2.31-22.28,54.67,6.88,2.81,22.28-54.68Zm161.93,20.86h3.71v-.1Zm-62.7,33.73v-3.72h-3.71v3.72Zm6.54,37.14h3.72V191.8l-1-1.07Zm0,.89v3.72h3.72v-3.72Zm-35.06,0H207.9v3.72h3.72Zm0-.89-2.38-2.85-1.34,1.11v1.74Zm0-101.77H207.9v1.45l1,1.07Zm0-1V86.73H207.9v3.71Zm46.05,54.82.15-3.71h-.15Zm0-43.38v3.71h.08Zm-18.12,0V98.17h-3.71v3.71Zm0,43.38h-3.71V149h3.71Zm18.12-51.11c3.79,0,14.23,0,23.75,3.74a29.19,29.19,0,0,1,12.18,8.38c3.13,3.81,5.33,9,5.53,16.22l7.42-.21c-.24-8.75-3-15.55-7.2-20.72A36.7,36.7,0,0,0,284.11,91c-10.94-4.27-22.65-4.24-26.44-4.24Zm41.46,28.23c0,7.74-2,13.27-5,17.3a27.2,27.2,0,0,1-11.7,8.79c-9.28,3.89-19.76,3.92-24.32,3.92v7.43c4.51,0,16.38,0,27.2-4.5a34.67,34.67,0,0,0,14.8-11.24c4-5.46,6.43-12.57,6.43-21.7Zm-41,30h-18v7.43h18Zm-21.69,3.72V169h7.43V156.11Zm0,12.92c0,8.88,1.23,14.93,2.85,19.13a22,22,0,0,0,4.67,7.61l5.46-5a14.59,14.59,0,0,1-3.2-5.24c-1.21-3.15-2.35-8.25-2.35-16.46ZM243,193.25v.89h7.43v-.89Zm3.71-2.82H211.62v7.43h35.06Zm-31.35,3.71v-.89H207.9v.89Zm-1.33,2c2.92-2.43,7.87-9.33,7.87-27.07h-7.43c0,16.44-4.56,20.83-5.2,21.37ZM221.87,169V115.7h-7.43V169Zm0-53.33c0-8.88-1.24-14.92-2.85-19.13A22.21,22.21,0,0,0,214.35,89l-5.46,5a14.74,14.74,0,0,1,3.2,5.24c1.21,3.15,2.35,8.25,2.35,16.46Zm-6.54-24.22v-1H207.9v1Zm-3.71-1v3.71h46.05V86.73H211.62Zm46.05,54.82-.14,3.71h1.25c.73,0,1.74-.09,3-.25a30.41,30.41,0,0,0,9-2.57,22.67,22.67,0,0,0,9.36-7.91c2.61-3.89,4.21-9,4.21-15.41h-7.43c0,5.2-1.26,8.77-2.94,11.27a15.36,15.36,0,0,1-6.37,5.33,22.74,22.74,0,0,1-6.76,1.92,19.47,19.47,0,0,1-2.24.19h-.71Zm26.6-22.43A24.08,24.08,0,0,0,280,108.35a23,23,0,0,0-9.36-7.41,33,33,0,0,0-8.88-2.48c-1.19-.16-2.2-.23-2.92-.27l-.85,0a1.12,1.12,0,0,0-.26,0h-.11s0,0,.06,3.71.08,3.71.07,3.71h.15l.59,0c.54,0,1.32.08,2.27.21a25.84,25.84,0,0,1,6.85,1.9,15.54,15.54,0,0,1,6.37,5,16.71,16.71,0,0,1,2.87,10.12Zm-26.6-24.66H239.55v7.42h18.12Zm-21.83,3.71v43.38h7.42V101.88Zm3.71,47.1h18.12v-7.43H239.55ZM372,196.67v3.71h.16Zm-8.47,0-.2,3.71h.2ZM367.86,91c17.5,0,30.1,5.35,38.34,14.09s12.62,21.43,12.62,36.87h7.43c0-16.79-4.73-31.47-14.64-42s-24.69-16.41-43.75-16.41Zm51,51c0,16.25-4.55,28.59-12.44,37s-19.5,13.33-34.52,14l.32,7.42c16.49-.7,30.12-6.18,39.62-16.31s14.45-24.45,14.45-42.08ZM372,193h-4.16v7.43H372Zm-4.16,0h-4.31v7.43h4.31Zm-4.1,0c-15.28-.85-26.87-5.79-34.65-14.13S316.9,158.27,316.9,142h-7.43c0,17.61,4.8,31.83,14.21,41.91s23,15.55,39.67,16.48ZM316.9,142c0-15.45,4.3-28.11,12.57-36.88S350.29,91,367.86,91V83.61c-19.12,0-33.86,5.86-43.8,16.41s-14.59,25.19-14.59,42Zm51,47.55c13.18,0,22.31-3.43,27.72-12.07,5.07-8.11,6.31-20.09,6.31-35.48h-7.43c0,15.52-1.37,25.45-5.18,31.54-3.47,5.54-9.48,8.58-21.42,8.58Zm34-47.55c0-15.42-1.36-27.45-6.48-35.62-5.44-8.68-14.55-12.22-27.55-12.22v7.43c11.66,0,17.71,3.08,21.26,8.74,3.87,6.17,5.34,16.19,5.34,31.67Zm-34-47.84c-13.12,0-22.24,3.71-27.68,12.45-5.13,8.23-6.49,20.26-6.49,35.39h7.43c0-15.17,1.46-25.21,5.36-31.46,3.58-5.75,9.69-9,21.38-9ZM333.69,142c0,15.21,1.35,27.17,6.5,35.32,5.46,8.65,14.59,12.23,27.67,12.23v-7.43c-11.73,0-17.82-3.12-21.39-8.76-3.88-6.15-5.35-16.1-5.35-31.36Z"/></g><path class="cls-4" d="M95.64,238l8.58-25.1h4.35l8.58,25.1h-3.54l-2.17-6.53H101.21L99.07,238Zm6.58-9.58h8.16L106.3,216.2ZM133,238v-2.83a14.34,14.34,0,0,1-3.19,2.43,7,7,0,0,1-3.41,1,6,6,0,0,1-3.1-.71,4.13,4.13,0,0,1-1.72-2.15,12.21,12.21,0,0,1-.53-4V219h3.12V230.2a15.53,15.53,0,0,0,.27,3.63,2.43,2.43,0,0,0,.91,1.32,3.29,3.29,0,0,0,1.8.4,5.86,5.86,0,0,0,2.77-.9,20.43,20.43,0,0,0,3.08-2.22V219h3.12v19Zm18.81,0a11.88,11.88,0,0,1-3.59.56A5.14,5.14,0,0,1,144,237a7.46,7.46,0,0,1-1.25-4.79V221.59H140V219h2.72v-5.3h3.12V219h4.82v2.61h-4.82v10.06a8.66,8.66,0,0,0,.45,3.3,2,2,0,0,0,2.07,1,6.39,6.39,0,0,0,2.56-.51Zm19.15-9.47q0,5-2.14,7.49a7.59,7.59,0,0,1-6.2,2.54,7.79,7.79,0,0,1-6.24-2.5q-2.16-2.52-2.16-7.53t2.16-7.6a7.81,7.81,0,0,1,6.24-2.5A7.6,7.6,0,0,1,168.8,221C170.21,222.68,170.92,225.2,170.92,228.53Zm-3.23,0q0-3.87-1.28-5.64a4.42,4.42,0,0,0-3.83-1.76,4.49,4.49,0,0,0-3.9,1.78c-.85,1.17-1.27,3.05-1.27,5.62a10,10,0,0,0,1.22,5.52,4.46,4.46,0,0,0,4,1.79,4.39,4.39,0,0,0,3.85-1.78Q167.69,232.29,167.69,228.53Zm25-7.61q0,4.53-2.14,6.56t-6.91,2h-3.93V238h-3.36V212.9h7.44q4.69,0,6.8,1.94T192.7,220.92Zm-3.51.07a5,5,0,0,0-1.31-3.85c-.87-.81-2.36-1.21-4.46-1.21h-3.7v10.52H183a10.71,10.71,0,0,0,3.86-.51,3.41,3.41,0,0,0,1.79-1.67A7.42,7.42,0,0,0,189.19,221Zm18.68,1.07a3.76,3.76,0,0,0-1.46-.22,6,6,0,0,0-2.7.65,12.44,12.44,0,0,0-3,2.36V238h-3.12V219h3.12v3.08a21.24,21.24,0,0,1,2.74-2.34,5.42,5.42,0,0,1,3.21-1,3.91,3.91,0,0,1,1.89.39ZM227,228.53q0,5-2.14,7.49a7.59,7.59,0,0,1-6.2,2.54,7.79,7.79,0,0,1-6.24-2.5q-2.16-2.52-2.16-7.53t2.16-7.6a7.81,7.81,0,0,1,6.24-2.5,7.6,7.6,0,0,1,6.22,2.56C226.26,222.68,227,225.2,227,228.53Zm-3.22,0q0-3.87-1.29-5.64a4.43,4.43,0,0,0-3.83-1.76,4.49,4.49,0,0,0-3.9,1.78c-.84,1.17-1.27,3.05-1.27,5.62a10,10,0,0,0,1.22,5.52,4.46,4.46,0,0,0,4,1.79,4.36,4.36,0,0,0,3.84-1.78Q223.74,232.29,223.74,228.53ZM254.1,238V226.79a20.27,20.27,0,0,0-.22-3.73,2,2,0,0,0-.76-1.26,3.08,3.08,0,0,0-1.66-.36,4.39,4.39,0,0,0-2.12.67,19,19,0,0,0-3.08,2.45V238h-3.12V226.79a19,19,0,0,0-.22-3.63,2.17,2.17,0,0,0-.74-1.32,2.66,2.66,0,0,0-1.63-.4,4.77,4.77,0,0,0-2.38.82,14.47,14.47,0,0,0-2.86,2.3V238h-3.12V219h3.12v2.82a15.06,15.06,0,0,1,2.75-2.35,5.79,5.79,0,0,1,3.27-1,4.86,4.86,0,0,1,3.06.89,4.42,4.42,0,0,1,1.54,2.83,19.62,19.62,0,0,1,3-2.65,5.91,5.91,0,0,1,3.43-1.07,4.7,4.7,0,0,1,2.79.75,4.17,4.17,0,0,1,1.55,2.12,12.75,12.75,0,0,1,.48,4V238Zm28.63-12.55q0,6.77-2.56,9.92c-1.69,2.1-4.24,3.16-7.65,3.16s-6-1.07-7.71-3.21-2.5-5.43-2.5-9.87.83-7.68,2.49-9.83,4.23-3.25,7.72-3.25,6,1.06,7.69,3.18S282.73,221,282.73,225.45Zm-3.52,0q0-5.2-1.57-7.65c-1-1.64-2.75-2.45-5.12-2.45a5.62,5.62,0,0,0-5.13,2.45q-1.56,2.44-1.56,7.65t1.58,7.67a6.59,6.59,0,0,0,10.21,0Q279.21,230.73,279.21,225.45Zm24.85,2.9a12.27,12.27,0,0,1-2.05,7.46,6.58,6.58,0,0,1-5.6,2.75,8,8,0,0,1-5.32-2.12v8.72H288V219h3.12v1.9a9.58,9.58,0,0,1,2.58-1.74,7.51,7.51,0,0,1,3.23-.71,6.14,6.14,0,0,1,5.27,2.58Q304.06,223.56,304.06,228.35Zm-3.23.07q0-7.21-4.53-7.21a5.83,5.83,0,0,0-2.85.74,11.15,11.15,0,0,0-2.36,1.7v10.07a7.6,7.6,0,0,0,4.9,2.05,4.18,4.18,0,0,0,3.48-1.78Q300.83,232.22,300.83,228.42ZM318.77,238a11.93,11.93,0,0,1-3.59.56A5.14,5.14,0,0,1,311,237a7.46,7.46,0,0,1-1.25-4.79V221.59H307V219h2.73v-5.3h3.11V219h4.83v2.61h-4.83v10.06a8.42,8.42,0,0,0,.46,3.3,2,2,0,0,0,2.06,1,6.36,6.36,0,0,0,2.56-.51Z"/><path class="cls-5" d="M334.29,228H455V56H65V228H79.86"/></svg>